<svg width="14" height="14" viewBox="0 0 14 14" fill="none" xmlns="http://www.w3.org/2000/svg">
<path d="M10.2317 4.84751C11.0242 4.84751 11.6667 4.20504 11.6667 3.41251C11.6667 2.61998 11.0242 1.97751 10.2317 1.97751C9.43913 1.97751 8.79666 2.61998 8.79666 3.41251C8.79666 4.20504 9.43913 4.84751 10.2317 4.84751Z" stroke="#FAF9F9" stroke-width="1.5" stroke-miterlimit="10" stroke-linecap="round" stroke-linejoin="round"/>
<path d="M3.76833 4.84751C4.56086 4.84751 5.20333 4.20504 5.20333 3.41251C5.20333 2.61998 4.56086 1.97751 3.76833 1.97751C2.9758 1.97751 2.33333 2.61998 2.33333 3.41251C2.33333 4.20504 2.9758 4.84751 3.76833 4.84751Z" stroke="#FAF9F9" stroke-width="1.5" stroke-miterlimit="10" stroke-linecap="round" stroke-linejoin="round"/>
<path d="M10.2317 12.0225C11.0242 12.0225 11.6667 11.38 11.6667 10.5875C11.6667 9.79497 11.0242 9.1525 10.2317 9.1525C9.43913 9.1525 8.79666 9.79497 8.79666 10.5875C8.79666 11.38 9.43913 12.0225 10.2317 12.0225Z" stroke="white" stroke-opacity="0.62" stroke-width="1.5" stroke-miterlimit="10" stroke-linecap="round" stroke-linejoin="round"/>
<path d="M3.76833 12.0225C4.56086 12.0225 5.20333 11.38 5.20333 10.5875C5.20333 9.79497 4.56086 9.1525 3.76833 9.1525C2.9758 9.1525 2.33333 9.79497 2.33333 10.5875C2.33333 11.38 2.9758 12.0225 3.76833 12.0225Z" stroke="white" stroke-opacity="0.62" stroke-width="1.5" stroke-miterlimit="10" stroke-linecap="round" stroke-linejoin="round"/>
</svg>
