<svg width="27" height="12" viewBox="0 0 13 12" fill="none" xmlns="http://www.w3.org/2000/svg">
<path d="M9.88618 5.39698H13C12.8975 4.42613 12.5451 3.5216 12.0133 2.74371C10.9049 3.24422 10.0976 4.2211 9.88618 5.39698Z" fill="#ABB0BC"/>
<path d="M3.36382 5.39698C3.15239 4.2211 2.3451 3.24422 1.23668 2.74371C0.704899 3.5216 0.352513 4.42613 0.25 5.39698H3.36382Z" fill="#ABB0BC"/>
<path d="M8.59194 5.39699C8.79697 3.83518 9.79646 2.50855 11.1932 1.7789C10.1681 0.795981 8.79697 0.144724 7.26569 0V5.39699H8.59194Z" fill="#ABB0BC"/>
<path d="M4.65804 5.39699H5.98429V0C4.45301 0.144724 3.0755 0.795981 2.05678 1.7789C3.45351 2.50855 4.45301 3.83518 4.65804 5.39699Z" fill="#ABB0BC"/>
<path d="M8.59194 6.60303H7.26569V12C8.79697 11.8553 10.1745 11.204 11.1932 10.2211C9.79646 9.49147 8.79697 8.16484 8.59194 6.60303Z" fill="#ABB0BC"/>
<path d="M1.23668 9.2563C2.33869 8.7558 3.15239 7.77288 3.36382 6.60303H0.25C0.352513 7.57388 0.704899 8.47841 1.23668 9.2563Z" fill="#ABB0BC"/>
<path d="M9.88618 6.60303C10.0976 7.77891 10.9049 8.7558 12.0133 9.2563C12.5451 8.47841 12.8975 7.57388 13 6.60303H9.88618Z" fill="#ABB0BC"/>
<path d="M4.65804 6.60303C4.45301 8.16484 3.45351 9.49147 2.05678 10.2211C3.08191 11.204 4.45301 11.8553 5.98429 12V6.60303H4.65804Z" fill="#ABB0BC"/>
</svg>
