<svg width="24" height="25" viewBox="0 0 24 25" fill="none" xmlns="http://www.w3.org/2000/svg">
<path d="M12.16 11.07C12.06 11.06 11.94 11.06 11.83 11.07C9.45 10.99 7.56 9.03997 7.56 6.63997C7.56 4.18997 9.54 2.19997 12 2.19997C14.45 2.19997 16.44 4.18997 16.44 6.63997C16.43 9.03997 14.54 10.99 12.16 11.07Z" stroke="#828F9C" stroke-width="1.5" stroke-linecap="round" stroke-linejoin="round"/>
<path d="M7.16 14.76C4.74 16.38 4.74 19.02 7.16 20.63C9.91 22.47 14.42 22.47 17.17 20.63C19.59 19.01 19.59 16.37 17.17 14.76C14.43 12.93 9.92 12.93 7.16 14.76Z" stroke="#828F9C" stroke-width="1.5" stroke-linecap="round" stroke-linejoin="round"/>
</svg>
