<svg width="24" height="25" viewBox="0 0 24 25" fill="none" xmlns="http://www.w3.org/2000/svg">
<mask id="mask0_29_1627" style="mask-type:alpha" maskUnits="userSpaceOnUse" x="0" y="0" width="24" height="25">
<rect y="0.199974" width="24" height="24" fill="#D9D9D9"/>
</mask>
<g mask="url(#mask0_29_1627)">
<path d="M12.5 12.15C12.9833 11.6166 13.3542 11.0083 13.6125 10.325C13.8708 9.64165 14 8.93332 14 8.19998C14 7.46665 13.8708 6.75832 13.6125 6.07498C13.3542 5.39165 12.9833 4.78332 12.5 4.24998C13.5 4.38332 14.3333 4.82498 15 5.57498C15.6667 6.32498 16 7.19998 16 8.19998C16 9.19998 15.6667 10.075 15 10.825C14.3333 11.575 13.5 12.0166 12.5 12.15ZM18 20.2V17.2C18 16.6 17.8667 16.0291 17.6 15.4875C17.3333 14.9458 16.9833 14.4666 16.55 14.05C17.4 14.35 18.1875 14.7375 18.9125 15.2125C19.6375 15.6875 20 16.35 20 17.2V20.2H18ZM20 13.2V11.2H18V9.19998H20V7.19998H22V9.19998H24V11.2H22V13.2H20ZM8 12.2C6.9 12.2 5.95833 11.8083 5.175 11.025C4.39167 10.2416 4 9.29998 4 8.19998C4 7.09998 4.39167 6.15832 5.175 5.37498C5.95833 4.59165 6.9 4.19998 8 4.19998C9.1 4.19998 10.0417 4.59165 10.825 5.37498C11.6083 6.15832 12 7.09998 12 8.19998C12 9.29998 11.6083 10.2416 10.825 11.025C10.0417 11.8083 9.1 12.2 8 12.2ZM0 20.2V17.4C0 16.8333 0.145833 16.3125 0.4375 15.8375C0.729167 15.3625 1.11667 15 1.6 14.75C2.63333 14.2333 3.68333 13.8458 4.75 13.5875C5.81667 13.3291 6.9 13.2 8 13.2C9.1 13.2 10.1833 13.3291 11.25 13.5875C12.3167 13.8458 13.3667 14.2333 14.4 14.75C14.8833 15 15.2708 15.3625 15.5625 15.8375C15.8542 16.3125 16 16.8333 16 17.4V20.2H0ZM8 10.2C8.55 10.2 9.02083 10.0041 9.4125 9.61248C9.80417 9.22081 10 8.74998 10 8.19998C10 7.64998 9.80417 7.17915 9.4125 6.78748C9.02083 6.39582 8.55 6.19998 8 6.19998C7.45 6.19998 6.97917 6.39582 6.5875 6.78748C6.19583 7.17915 6 7.64998 6 8.19998C6 8.74998 6.19583 9.22081 6.5875 9.61248C6.97917 10.0041 7.45 10.2 8 10.2ZM2 18.2H14V17.4C14 17.2166 13.9542 17.05 13.8625 16.9C13.7708 16.75 13.65 16.6333 13.5 16.55C12.6 16.1 11.6917 15.7625 10.775 15.5375C9.85833 15.3125 8.93333 15.2 8 15.2C7.06667 15.2 6.14167 15.3125 5.225 15.5375C4.30833 15.7625 3.4 16.1 2.5 16.55C2.35 16.6333 2.22917 16.75 2.1375 16.9C2.04583 17.05 2 17.2166 2 17.4V18.2Z" fill="#818F9C"/>
</g>
</svg>
